<?xml version="1.0" standalone="no"?>
<svg xmlns="http://www.w3.org/2000/svg" xmlns:xlink="http://www.w3.org/1999/xlink" width="441pt" height="352pt" viewBox="0.00 0.00 441.35 351.8">
<g id="graph0" class="graph" transform="translate(15.608970712193866,346.6126504049281) scale(1)" data-name="">
<polygon fill="white" stroke="none" points="-4,4 -4,-347.8 437.35,-347.8 437.35,4 -4,4"/>
<!-- sat -->
<g id="node1" class="node" pointer-events="visible" data-name="sat">

<polygon fill="lavender" stroke="lavender" points="295.3,-343.8 138.05,-343.8 138.05,-307.8 295.3,-307.8 295.3,-343.8"/>
<text text-anchor="middle" x="216.67" y="-321.6" font-family="Times,serif" font-size="14.00">Sentinel 2 satellite image</text>
</g>
<!-- n -->
<g id="node2" class="node" pointer-events="visible" data-name="nvdi1" data-comment="n">

<polygon fill="lavender" stroke="lavender" points="208.15,-197.8 87.2,-197.8 87.2,-161.8 208.15,-161.8 208.15,-197.8"/>
<text text-anchor="middle" x="147.67" y="-175.6" font-family="Times,serif" font-size="14.00">2023 NVDI Image</text>
</g>
<!-- sa -->
<g id="edge1" class="edge" data-name="sat-&gt;code" data-comment="sa">

<path fill="none" stroke="black" d="M216.67,-307.61C216.67,-300.03 216.67,-290.9 216.67,-282.34"/>
<polygon fill="black" stroke="black" points="220.17,-282.34 216.67,-272.34 213.17,-282.34 220.17,-282.34"/>
</g>
<!-- nvdi -->
<!-- nvdi2 -->
<g id="node3" class="node" pointer-events="visible" data-name="nvdi2">

<polygon fill="lavender" stroke="lavender" points="347.15,-197.8 226.2,-197.8 226.2,-161.8 347.15,-161.8 347.15,-197.8"/>
<text text-anchor="middle" x="286.67" y="-175.6" font-family="Times,serif" font-size="14.00">2024 NVDI Image</text>
</g>

<g id="node4" class="node" pointer-events="visible" data-name="code" data-comment="nvdi2">

<polygon fill="antiquewhite" stroke="antiquewhite" points="365.53,-270.8 128.73,-270.8 67.81,-234.8 304.62,-234.8 365.53,-270.8"/>
<text text-anchor="middle" x="216.67" y="-248.6" font-family="Times,serif" font-size="14.00">Javascript code in GEE</text>
</g><!-- n -->
<!-- code&#45;&gt;nvdi1 -->
<g id="edge2" class="edge" data-name="code-&gt;nvdi1">

<path fill="none" stroke="black" d="M199.97,-234.61C191.58,-225.98 181.26,-215.36 172,-205.83"/>
<polygon fill="black" stroke="black" points="174.76,-203.65 165.28,-198.91 169.74,-208.52 174.76,-203.65"/>
</g><g id="edge3" class="edge" data-name="nvdi1-&gt;qgis" data-comment="code-&gt;nvdi1">

<path fill="none" stroke="black" d="M154.77,-161.47C159.58,-150.89 166.58,-137.45 175.01,-127 177.8,-123.54 180.97,-120.17 184.29,-116.98"/>
<polygon fill="black" stroke="black" points="186.47,-119.73 191.58,-110.45 181.8,-114.51 186.47,-119.73"/>
<text text-anchor="middle" x="220.01" y="-131.2" font-family="Times,serif" font-size="14.00">Import to QGIS</text>
</g>
<!-- c -->

<g id="edge4" class="edge" data-name="code-&gt;nvdi2" data-comment="c">

<path fill="none" stroke="black" d="M233.62,-234.61C242.13,-225.98 252.61,-215.36 261.99,-205.83"/>
<polygon fill="black" stroke="black" points="264.29,-208.48 268.82,-198.91 259.31,-203.57 264.29,-208.48"/>
</g>
<!-- Q -->
<!-- qgis -->
<g id="node5" class="node" pointer-events="visible" data-name="qgis">

<polygon fill="antiquewhite" stroke="antiquewhite" points="433.52,-109 88.57,-109 -0.17,-73 344.78,-73 433.52,-109"/>
<text text-anchor="middle" x="216.67" y="-86.8" font-family="Times,serif" font-size="14.00">Calculate difference in pixel values</text>
</g><g id="edge5" class="edge" data-name="nvdi2-&gt;qgis" data-comment="qgis">

<path fill="none" stroke="black" d="M281.59,-161.74C277.82,-151.01 271.91,-137.3 263.67,-127 260.74,-123.33 257.34,-119.85 253.74,-116.61"/>
<polygon fill="black" stroke="black" points="256.2,-114.1 246.25,-110.46 251.75,-119.51 256.2,-114.1"/>
</g>

<!-- V -->
<!-- qgis&#45;&gt;l -->
<g id="edge6" class="edge" data-name="qgis-&gt;lost" data-comment="qgis-&gt;l">

<path fill="none" stroke="black" d="M216.67,-72.81C216.67,-65.23 216.67,-56.1 216.67,-47.54"/>
<polygon fill="black" stroke="black" points="220.17,-47.54 216.67,-37.54 213.17,-47.54 220.17,-47.54"/>
</g>
<g id="node6" class="node" pointer-events="visible" data-name="lost" data-comment="qgis-&gt;l">

<polygon fill="lavender" stroke="lavender" points="288.04,-36 145.31,-36 145.31,0 288.04,0 288.04,-36"/>
<text text-anchor="middle" x="216.67" y="-13.8" font-family="Times,serif" font-size="14.00">Map of lost vegetation</text>
</g>
</g>
</svg>